<svg width="221" height="47" viewBox="0 0 221 47" fill="none" xmlns="http://www.w3.org/2000/svg">
<path d="M37.1582 0C42.2887 0 46.4482 4.15944 46.4482 9.28997C46.4481 11.8595 45.4047 14.1851 43.7186 15.8667C41.6609 17.9189 39.4809 20.3174 39.4809 23.2236C39.4809 26.1298 41.661 28.5285 43.7186 30.5808C45.4048 32.2626 46.4481 34.5886 46.4482 37.1582C46.4482 42.2887 42.2887 46.4482 37.1582 46.4482C34.5885 46.4481 32.2623 45.4046 30.5805 43.7183C28.5284 41.6607 26.13 39.4809 23.2241 39.4809C20.3181 39.4809 17.9197 41.6607 15.8677 43.7183C14.1859 45.4046 11.8597 46.4481 9.28997 46.4482C4.15944 46.4482 0 42.2887 0 37.1582C0.000198604 32.0278 4.15956 27.8691 9.28997 27.8691C11.8597 27.8692 14.1859 28.9126 15.8677 30.5989C17.9198 32.6565 20.3182 34.8363 23.2241 34.8363C26.13 34.8363 28.5347 32.6446 30.5894 30.5898C32.6444 28.5347 34.8363 26.1298 34.8363 23.2236C34.8363 20.3174 32.6563 17.9189 30.5986 15.8667C28.9125 14.1852 27.8692 11.8595 27.8691 9.28997C27.8691 4.15956 32.0278 0.000198608 37.1582 0Z" fill="white"/>
<path d="M37.1655 32.0187C37.3061 34.7895 39.5283 37.0113 42.2992 37.1516L42.5778 37.1583C39.5852 37.1583 37.159 39.5848 37.1588 42.5774C37.1585 39.5849 34.7323 37.1584 31.7397 37.1583C34.7323 37.1582 37.1587 34.7319 37.1588 31.7392L37.1655 32.0187ZM33.9167 41.5006C33.9862 41.5526 34.0569 41.6027 34.1289 41.6513L34.3486 41.7928C34.2742 41.7476 34.2009 41.7 34.1289 41.6513L33.9167 41.5006ZM41.9237 34.5755C42.0024 34.7203 42.0746 34.8692 42.1401 35.0217C42.1093 34.9501 42.0769 34.8794 42.0433 34.8095L41.9237 34.5755ZM41.6526 34.1284C41.6955 34.1919 41.7362 34.2568 41.7764 34.3221C41.6905 34.1826 41.5989 34.047 41.5011 33.9163L41.6526 34.1284ZM40.6062 32.9768C40.6521 33.0146 40.6963 33.0544 40.7409 33.0938C40.6311 32.997 40.5182 32.9038 40.4008 32.816L40.6062 32.9768ZM34.3486 32.5238C34.2741 32.5691 34.201 32.6166 34.1289 32.6653L33.9167 32.816C33.9863 32.764 34.0568 32.714 34.1289 32.6653L34.3486 32.5238Z" fill="#0C0C0C"/>
<path d="M76.8759 10.6897V31.9586C76.8759 34.3862 76.2 36.2759 74.8483 37.6276C73.5241 38.9793 71.6345 39.6552 69.1793 39.6552H63.8414V34.2759H67.2759C68.4897 34.2759 69.3586 34 69.8828 33.4483C70.4069 32.869 70.669 31.9724 70.669 30.7586V10.6897H76.8759Z" fill="white"/>
<path d="M80.7286 39.6552L91.3217 10.6897H98.77L109.28 39.6552H102.618L100.384 33.3241H89.3768L87.1424 39.6552H80.7286ZM91.032 28.3172H98.6872L94.8389 17.3103L91.032 28.3172Z" fill="white"/>
<path d="M108.4 10.6897H131.324V16.0276H122.965V39.6552H116.758V16.0276H108.4V10.6897Z" fill="white"/>
<path d="M130.419 39.6552L141.012 10.6897H148.46L158.97 39.6552H152.308L150.074 33.3241H139.067L136.833 39.6552H130.419ZM140.722 28.3172H148.377L144.529 17.3103L140.722 28.3172Z" fill="white"/>
<path d="M163.784 10.731H169.991V23.7241L181.577 10.731H189.108L178.474 22.6483L189.812 39.6552H182.363L174.087 27.4483L169.991 32.0414V39.6552H163.784V10.731Z" fill="white"/>
<path d="M192.272 39.6552L202.865 10.6897H210.314L220.824 39.6552H214.162L211.927 33.3241H200.921L198.686 39.6552H192.272ZM202.576 28.3172H210.231L206.383 17.3103L202.576 28.3172Z" fill="white"/>
</svg>
